<svg width="422" height="434" viewBox="0 0 422 434" fill="none" xmlns="http://www.w3.org/2000/svg">
<g id="Illustration/Food">
<g id="Group">
<path id="Blob" fill-rule="evenodd" clip-rule="evenodd" d="M237.924 37.6133C339.388 37.6133 360.749 178.228 361.164 179.385C361.592 180.577 361.995 181.804 362.385 182.995C363.176 185.413 364.194 187.742 364.986 190.145C365.47 191.61 366.36 192.824 366.957 194.209C368.113 196.853 369.531 199.376 371.189 201.741C371.873 202.677 372.41 203.712 372.783 204.81C373.045 205.65 373.912 205.874 374.287 206.616C374.893 207.816 375.701 208.913 376.4 210.065C376.559 210.47 376.925 210.759 377.357 210.819L377.22 211.963C377.473 212.375 377.56 211.818 377.824 211.916C378.156 212.362 378.629 212.759 378.677 213.439C378.721 214.078 379.467 214.138 379.722 214.695C380.282 215.905 381.838 216.522 381.815 218.11C382.934 218.812 383.484 220.018 384.329 220.964C384.762 221.399 385.026 221.973 385.076 222.582L385.084 222.723C385.078 223.329 386.247 223.193 385.932 224.019C387.723 225.363 388.188 227.558 389.133 229.376C390.649 232.294 392.396 235.114 393.426 238.309C393.942 239.907 394.942 241.419 395.497 243.038C396.748 246.676 398.249 250.235 399.061 254.023C399.396 255.589 400.081 257.079 400.401 258.649L400.771 260.463C401.322 263.185 401.844 265.913 402.19 268.672C402.369 269.294 402.368 269.954 402.19 270.576C401.892 271.284 402.685 271.738 402.748 272.448C402.828 273.291 402.491 274.089 402.733 274.984C402.867 275.477 402.734 276.269 402.887 276.841C403.385 278.701 402.754 280.619 403.296 282.466C403.382 283.18 403.307 283.904 403.077 284.586C402.702 286.86 403.388 289.182 402.703 291.403C402.383 292.498 402.321 293.651 402.523 294.772L402.608 295.204C402.668 295.525 402.709 295.836 402.551 296.052C401.928 296.905 402.088 297.91 401.964 298.843L401.94 298.998C401.761 300.042 401.946 301.137 401.63 302.201C401.2 303.243 400.958 304.352 400.916 305.479C401.076 307.388 400.433 309.102 400.039 310.875C399.842 311.761 400.005 312.814 399.03 313.473C398.534 313.808 399.704 314.459 398.995 314.949L398.911 315.001C398.391 315.295 398.413 315.769 398.56 316.337C398.694 316.857 397.787 317.215 398.047 317.747C398.306 318.278 398.423 319.051 398.12 319.149C397.362 319.398 398.133 320.222 397.497 320.378C397.434 320.412 397.391 320.473 397.38 320.543C397.162 322.538 395.878 324.175 395.561 326.169C395.32 327.359 394.856 328.494 394.194 329.512C393.645 330.495 393.179 331.522 392.8 332.583C392.088 334.365 390.869 335.854 390.182 337.628C389.995 338.108 388.751 337.947 389.384 338.933C388.659 339.189 388.879 339.94 388.587 340.41C388.266 340.764 387.891 341.068 387.477 341.308C387.209 342.364 386.696 343.342 385.978 344.163C384.725 345.996 383.357 347.748 381.883 349.409L380.664 350.773C379.036 352.592 377.355 354.371 375.209 355.625C374.658 355.947 374.909 356.558 374.455 356.89C371.824 358.832 369.401 361.035 366.407 362.507C365.155 363.124 364.081 364.219 362.801 364.861C360.374 366.078 358.12 367.595 355.525 368.544L355.063 368.705C353.41 369.255 351.782 370.089 350.104 370.694C346.657 372.048 343.059 372.983 339.388 373.478L337.123 373.729C335.11 373.952 333.094 374.157 331.06 374.213C330.098 374.239 329.175 373.934 328.294 374.044C327.436 374.152 326.565 374.082 325.735 373.838C325.08 373.654 324.525 374.218 323.82 373.915C323.278 373.576 322.606 373.526 322.023 373.773L321.907 373.826C321.572 374.02 320.914 373.662 320.404 373.547C319.661 373.443 318.93 373.263 318.224 373.008C317.677 372.755 316.98 373.568 316.599 372.704C315.907 373.241 268.899 362.07 225.719 384.754C222.202 387.084 218.087 388.106 214.33 389.916C212.583 390.759 210.62 391.144 208.739 391.719L208.338 391.846C205.019 392.919 201.615 393.651 198.216 394.416C195.093 395.092 191.929 395.562 188.744 395.823C186.455 396.03 184.154 396.126 181.87 396.376C180.944 396.476 180.036 395.824 179.129 396.384C177.093 395.83 174.955 396.503 172.924 395.877C171.574 396.276 170.304 395.781 169.063 395.415C168.116 395.134 167.223 395.717 166.265 395.304C165.394 394.849 164.418 394.632 163.436 394.675C161.805 394.925 160.386 394.327 158.9 394.011C155.449 393.276 152.011 392.481 148.584 391.627C147.462 391.347 146.202 391.455 145.241 390.597C144.397 389.844 143.066 390.316 142.238 389.427C141.935 389.103 141.549 389.73 141.094 389.485C140.205 389.008 139.063 389.323 138.233 388.462C137.618 387.825 136.457 388.256 135.776 387.487L135.687 387.374C135.285 386.816 134.224 388.132 133.911 386.889C132.644 386.792 131.593 386.101 130.465 385.628C129.53 385.237 128.427 385.458 127.583 384.644C126.865 383.95 125.506 384.46 124.884 383.42C123.36 383.408 122.237 382.268 120.785 381.968C119.683 381.679 118.625 381.243 117.639 380.673C116.075 379.869 114.488 379.112 112.889 378.394C112.315 378.127 111.756 377.829 111.216 377.5C110.912 377.323 110.839 376.93 110.406 376.834C107.663 376.227 105.357 374.629 103.015 373.231C101.679 372.541 100.401 371.745 99.1926 370.851L98.7925 370.55C98.4389 370.246 97.7045 370.096 97.3937 369.673C96.5269 368.496 95.2304 367.92 94.0548 367.213L93.8601 367.094C93.1978 366.704 92.5958 366.219 92.073 365.656C91.974 365.549 91.9337 365.316 91.8286 365.29C89.8772 364.808 88.7127 363.197 87.2208 362.07C85.9374 361.102 84.8149 359.922 83.5511 358.935L83.07 358.574C80.1127 356.459 47.7525 320.851 44.0856 314.706L43.0363 312.947C41.9884 311.185 40.9526 309.411 39.999 307.601L39.1868 306.06C38.3759 304.516 37.5778 302.961 36.8722 301.379L35.9281 299.267C34.0445 295.041 32.2014 290.793 30.6305 286.43C29.2297 282.537 28.0701 278.581 26.8993 274.621C26.1494 272.078 25.5158 269.524 24.9804 266.933C24.1252 262.793 23.3626 258.636 22.6926 254.463C22.0676 250.533 22.2988 246.546 21.4643 242.66C22.011 240.274 21.0058 237.853 21.63 235.47C21.167 234.293 21.5741 233.072 21.6176 231.912C21.6622 230.714 21.3936 229.46 21.8718 228.246C22.0909 227.695 21.5845 227.033 21.8589 226.359C22.1601 225.799 22.1948 225.134 21.9537 224.545C22.7667 224.172 21.7976 223.596 22.1352 223.064C22.4993 222.486 22.6601 221.803 22.5923 221.124C22.3555 219.604 23.2313 218.2 23.0775 216.826C22.9172 215.422 23.6109 214.231 23.6087 212.972L23.5998 212.735C23.4801 211.083 24.6615 209.838 24.7009 208.275C24.7047 208.137 25.028 208.011 25.2053 207.875C25.1485 207.524 24.7595 207.603 24.4836 207.33C24.9241 206.948 25.3094 206.506 25.6288 206.019C25.8705 205.35 26.0422 204.658 26.1411 203.954L25.0211 202.509C25.4344 201.683 25.2903 200.931 25.8421 200.283C26.0823 200 25.9484 199.134 25.978 198.537C26.0171 197.752 27.0257 197.284 26.7824 196.664C26.5947 195.952 26.6555 195.196 26.9548 194.522C28.3977 188.161 29.8675 181.806 31.364 175.457C31.5215 174.776 31.3845 173.921 32.222 173.522C31.3069 172.577 32.744 172.247 32.7663 171.498C32.8829 170.798 33.1527 170.133 33.5564 169.548C34.128 168.455 34.1806 167.099 34.5061 165.867C34.5919 164.996 34.9217 164.167 35.4578 163.475C36.0153 162.898 35.9349 161.893 36.3547 161.082C36.9477 160.103 37.4073 159.049 37.7214 157.948C37.816 157.157 38.1313 156.408 38.6313 155.788C39.0754 155.298 38.7107 154.283 39.5737 153.913C39.8158 152.49 40.6652 151.347 41.2941 150.101L41.4092 149.866C42.954 146.658 44.6902 143.546 46.6085 140.546C48.2022 138.021 49.753 135.47 51.3711 132.961C51.8975 132.151 52.4572 131.344 53.0361 130.575C55.0469 127.747 57.2129 125.033 59.524 122.443C61.6378 120.204 63.6527 117.863 65.872 115.709C67.0518 114.563 68.0173 113.157 69.1628 111.939C71.8621 109.067 74.6341 106.272 77.5495 103.619C80.0117 101.187 82.7043 98.9982 85.5895 97.0844C86.3738 96.6075 87.0189 95.9081 87.7761 95.3801C88.6953 94.8738 89.5773 94.3029 90.4155 93.6718C91.3906 92.7548 92.5871 92.1714 93.5721 91.3218C94.3367 90.6627 95.5597 91.0385 96.107 89.8527C96.5058 88.9899 97.9987 89.306 98.5015 88.2979C99.8796 88.2521 100.523 86.9177 101.775 86.4791L101.942 86.4271C103.26 86.0674 104.385 85.0031 105.595 84.2484C106.762 83.4222 107.983 82.6749 109.25 82.0115C111.628 80.9405 113.681 79.3086 116.006 78.2024C118.222 77.1491 120.217 75.6071 122.634 75.0199C123.206 74.8816 123.099 74.378 123.492 74.163C123.901 73.9382 124.349 74.0871 124.719 73.8278C126.247 72.8305 136.461 37.6133 237.924 37.6133Z" fill="#9C0000"/>
<path id="Shape" fill-rule="evenodd" clip-rule="evenodd" d="M123.472 113.1C120.078 115.015 115.109 112.572 114.552 108.715C116.716 108.6 119.03 108.431 120.742 107.1C122.453 105.769 123.052 102.823 121.336 101.497C107.371 99.7821 93.7853 95.0371 81.7887 87.6845C89.9803 85.2162 97.0288 80.0097 104.723 76.2688C112.417 72.528 121.723 70.3156 129.397 74.0982C136.932 77.8125 145.606 73.0747 153.469 70.1171C167.141 64.9744 182.819 65.4055 196.188 71.292C205.942 75.5866 222.47 68.6158 233.007 67.0171C250.219 64.4057 267.02 76.4688 284.303 74.3797C282.449 75.6056 280.595 76.8315 278.741 78.0575C280.567 77.8906 282.403 77.8231 284.236 77.8554C269.893 84.7189 255.55 91.5824 241.207 98.4459C244.841 99.9156 248.474 101.385 252.108 102.855C251.254 105.593 248.192 107.443 245.37 106.924C247.641 108.731 249.911 110.538 252.181 112.344C249.758 114.065 246.691 114.856 243.737 114.521C246.883 116.552 249.479 119.425 251.181 122.759C258.673 120.263 266.88 119.956 274.538 121.884C267.619 122.791 260.7 123.698 253.781 124.606C254.826 127.45 255.871 130.295 256.916 133.14C265.955 131.071 275.561 131.542 284.355 134.483C275.635 134.705 266.915 134.927 258.195 135.149C257.991 146.718 252.232 158.516 242.119 164.138C232.006 169.76 211.797 174.759 205.104 158.39C199.979 161.753 200.342 169.837 203.995 174.759C207.649 179.681 213.454 182.405 218.704 185.568C236.142 196.078 249.295 213.483 254.645 233.128C259.995 252.773 257.483 274.443 247.782 292.344C260.862 294.377 273.016 301.82 280.771 312.547C297.472 304.776 306.722 287.045 319.515 273.791C334.068 258.715 354.157 249.105 375.027 247.236C387.375 246.13 401.458 248.511 408.661 258.602C418.023 271.718 409.391 292.111 394.447 298.14C382.601 302.919 369.24 300.516 356.497 301.418C330.875 303.234 308.379 318.343 287.251 332.952C286.39 337.683 288.119 342.804 291.672 346.043C299.23 338.231 308.763 332.346 319.134 329.09C322.967 327.887 328.712 328.201 329.138 332.196C329.299 333.708 328.504 335.142 327.699 336.432C320.785 347.516 311.036 356.815 299.638 363.198C293.622 366.567 286.899 369.179 280.015 368.793C273.13 368.407 266.119 364.434 263.781 357.947C262.697 354.941 262.58 351.461 260.528 349.012C257.056 344.869 250.387 346.109 245.521 348.463C240.654 350.817 235.467 354.017 230.244 352.62C217.19 349.129 203.603 347.631 190.101 348.197C172.907 348.916 155.387 352.919 138.728 348.601C133.162 347.159 126.934 344.883 122.004 347.841C112.289 353.669 118.842 372.327 108.874 377.714C105.344 379.622 101.017 378.918 97.1215 377.952C79.9086 373.679 63.7632 365.172 50.5075 353.389C49.23 352.254 47.9139 350.978 47.5557 349.307C46.4816 344.294 53.8813 342.209 58.9234 343.137C67.4884 344.713 75.6799 348.283 82.6652 353.484C85.1139 355.308 88.8396 353.181 89.877 350.309C90.9144 347.438 90.2006 344.277 89.7957 341.251C87.2385 322.138 99.2287 302.044 117.263 295.219C106.344 279.286 102.192 258.87 106.02 239.937C109.848 221.004 121.605 203.805 137.857 193.365C144.349 189.194 151.808 185.783 155.945 179.269C160.083 172.756 158.267 161.829 150.698 160.327C143.566 168.051 131.967 171.317 121.853 168.451C111.739 165.584 103.578 156.716 101.56 146.4C94.8472 148.667 88.1342 150.934 81.4212 153.201C87.3796 148.609 94.4358 145.452 101.83 144.069C102.54 140.994 103.249 137.919 103.959 134.844C91.1499 134.018 78.1602 136.126 66.2698 140.961C73.5867 135.453 82.8962 132.655 92.0372 133.214C101.335 133.784 110.786 129.235 116.14 121.613C112.79 120.435 109.779 118.309 107.549 115.545C110.965 113.691 115.104 113.21 118.854 114.232M189.183 314.769C188.574 315.362 187.918 316.067 187.961 316.917C188.004 317.767 189.279 318.401 189.718 317.673C192.119 313.696 196.293 310.837 200.869 310.036C205.444 309.236 210.341 310.507 213.95 313.431C215.209 314.452 216.333 315.671 217.771 316.417C218.289 316.686 219.175 316.693 219.197 316.11C219.204 315.919 219.094 315.745 218.986 315.586C216.395 311.767 212.521 308.835 208.141 307.38C204.302 306.104 199.853 306.024 196.42 308.163C195.173 308.94 194.109 309.973 193.057 310.998C191.765 312.255 190.474 313.512 189.183 314.769ZM170.565 307.82C165.595 307.162 160.243 308.831 156.933 312.596C156.35 313.26 155.82 314.007 155.619 314.868C155.418 315.729 155.607 316.724 156.274 317.305C158.834 313.327 163.384 310.703 168.109 310.48C172.835 310.257 177.611 312.441 180.535 316.16C180.992 316.742 181.428 317.377 182.077 317.732C182.726 318.088 183.67 318.042 184.065 317.417C184.537 316.67 183.967 315.714 183.385 315.05C180.082 311.277 175.536 308.477 170.565 307.82ZM205.627 302.731C205.55 303.571 206.66 304.094 207.458 303.819C208.256 303.544 208.785 302.809 209.319 302.156C213.762 296.721 222.224 295.084 228.374 298.468C229.18 297.787 229.226 296.48 228.687 295.573C228.147 294.665 227.161 294.108 226.155 293.787C223.977 293.091 221.612 293.328 219.37 293.782C214.065 294.855 208.705 297.37 205.916 302.009C205.782 302.233 205.65 302.47 205.627 302.731ZM184.769 320.363C182.588 320.514 180.454 321.091 178.413 321.873C175.592 322.952 172.814 324.525 171.163 327.055C173.584 327.74 175.906 325.934 178.118 324.734C183.081 322.041 189.518 322.319 194.23 325.431C195.708 326.407 197.607 327.668 199.049 326.638C195.677 322.411 190.163 319.988 184.769 320.363ZM193.727 318.999C195.381 318.137 196.703 316.738 198.343 315.851C200.602 314.629 203.417 314.487 205.787 315.477C207.074 316.015 208.214 316.856 209.482 317.437C210.75 318.017 212.261 318.319 213.524 317.728C213.664 317.662 213.809 317.576 213.869 317.433C213.965 317.2 213.794 316.95 213.628 316.761C210.801 313.533 206.371 311.785 202.102 312.211C197.832 312.637 193.835 315.227 191.702 318.949C192.147 319.535 193.074 319.34 193.727 318.999ZM160.605 319.153C161.491 318.649 162.184 317.871 162.994 317.252C164.614 316.015 166.725 315.445 168.75 315.68C171.006 315.942 173.041 317.137 174.907 318.432C175.453 318.811 176.01 319.209 176.657 319.36C177.304 319.51 178.075 319.347 178.441 318.793C178.803 318.244 178.658 317.479 178.271 316.949C177.883 316.418 177.301 316.069 176.734 315.736C174.428 314.383 171.99 313.031 169.32 312.893C165.982 312.721 162.879 314.461 159.992 316.145C158.821 316.829 157.477 317.864 157.725 319.196C158.526 319.826 159.719 319.657 160.605 319.153ZM175.638 306.214C176.241 306.994 177.421 306.158 178.086 305.431C180.135 303.192 183.089 301.805 186.121 301.66C189.153 301.514 192.226 302.611 194.481 304.644C195.049 305.156 195.649 305.762 196.414 305.783C197.18 305.804 197.869 304.735 197.262 304.269C194.012 301.772 190.231 299.731 186.141 299.462C182.051 299.192 177.644 301.027 175.751 304.662C175.497 305.149 175.303 305.779 175.638 306.214ZM211.797 305.53C212.337 305.302 212.732 304.838 213.146 304.422C216.292 301.257 221.623 300.549 225.486 302.784C226.453 303.343 227.906 303.96 228.467 302.995C228.936 302.19 228.101 301.254 227.305 300.771C222.109 297.62 214.701 298.821 210.766 303.451C210.365 303.923 209.98 304.57 210.255 305.124C210.516 305.649 211.257 305.758 211.797 305.53ZM214.67 305.828C214.447 306.014 214.224 306.224 214.13 306.499C213.867 307.268 214.802 307.989 215.613 307.924C216.423 307.86 217.112 307.339 217.847 306.992C219.64 306.147 221.794 306.348 223.614 307.134C224.334 307.445 225.031 307.846 225.807 307.963C226.582 308.08 227.487 307.823 227.84 307.122C224.756 303.3 218.439 302.679 214.67 305.828ZM165.912 304.361C166.372 304.577 167 304.535 167.296 304.122C167.699 303.56 167.268 302.795 166.84 302.251C165.393 300.411 163.836 298.6 161.847 297.365C159.857 296.131 157.352 295.537 155.136 296.294C154.911 297.112 155.929 297.668 156.731 297.947C159.817 299.023 162.618 300.906 164.779 303.357C165.116 303.738 165.452 304.145 165.912 304.361ZM193.184 306.415C189.542 304.092 184.57 304.051 180.891 306.314C180.251 306.707 179.594 307.259 179.545 308.009C179.495 308.758 180.512 309.453 181.017 308.897C183.049 306.656 186.763 306.191 189.286 307.862C190.524 308.682 192.303 308.57 193.429 307.601C193.96 307.546 193.634 306.702 193.184 306.415ZM219.677 318.982C214.502 318.633 209.686 321.677 205.93 325.254C206.204 325.886 207.136 325.718 207.768 325.445C212.046 323.594 216.323 321.742 220.601 319.891C220.922 319.466 220.209 319.018 219.677 318.982ZM170.426 321.287C171.063 321.647 171.686 322.138 172.417 322.139C173.149 322.139 173.874 321.258 173.41 320.693C171.949 318.911 169.652 317.846 167.349 317.881C165.045 317.917 162.782 319.052 161.376 320.877C161.549 321.54 162.361 321.846 163.039 321.747C163.718 321.648 164.315 321.266 164.945 320.993C166.685 320.239 168.776 320.351 170.426 321.287ZM196.087 320.8C196.029 321.31 196.606 321.7 197.118 321.672C197.63 321.644 198.08 321.344 198.529 321.097C200.414 320.058 202.735 319.846 204.778 320.524C206.087 320.958 207.72 321.669 208.665 320.664C208.747 320.09 208.171 319.657 207.659 319.384C205.825 318.408 203.805 317.672 201.727 317.691C199.649 317.711 197.505 318.582 196.319 320.288C196.211 320.444 196.108 320.612 196.087 320.8ZM192.224 298.441C194.364 299.207 196.356 300.381 198.063 301.881C198.766 302.499 199.44 303.184 200.293 303.57C201.147 303.955 202.255 303.965 202.923 303.309C201.445 302.175 200.231 300.699 199.402 299.03C198.956 298.131 197.767 297.967 196.765 297.918C195.3 297.846 193.835 297.774 192.37 297.703C192.215 297.911 192.16 298.19 192.224 298.441ZM173.117 303.585C173.873 302.879 174.431 301.988 175.13 301.225C176.214 300.041 177.641 299.176 179.192 298.762C179.861 298.583 180.741 298.241 180.64 297.556C178.744 297.227 176.582 296.961 175.087 298.172C172.993 299.868 171.334 302.095 170.307 304.586C171.317 304.81 172.361 304.292 173.117 303.585ZM156.269 302.727C157.627 303.612 158.986 304.497 160.344 305.382C160.919 305.757 161.653 306.141 162.25 305.801C162.803 305.486 162.888 304.675 162.599 304.107C162.311 303.539 161.761 303.159 161.232 302.804C160.126 302.059 159.02 301.314 157.915 300.57C156.988 299.946 155.48 299.449 154.976 300.445C154.542 301.304 155.462 302.202 156.269 302.727ZM184.868 313.367C185.388 313.882 186.116 314.44 186.777 314.123C187.078 313.979 187.272 313.683 187.45 313.401C188.039 312.47 188.628 311.54 189.217 310.609C187.675 308.895 184.648 308.849 183.056 310.516C182.933 310.644 182.814 310.79 182.792 310.966C182.757 311.245 182.973 311.485 183.172 311.683C183.737 312.244 184.303 312.805 184.868 313.367ZM161.099 326.675C162.204 327.062 163.507 327.177 164.482 326.528C163.015 324.841 161.296 323.374 159.4 322.191C158.862 321.855 158.255 321.531 157.627 321.62C156.999 321.71 156.444 322.423 156.748 322.98C157.681 324.688 159.262 326.031 161.099 326.675ZM221.704 313.116C222.226 312.486 222.748 311.855 223.27 311.224C223.45 311.007 223.64 310.762 223.629 310.48C223.614 310.122 223.287 309.865 222.975 309.689C221.89 309.079 220.609 308.824 219.373 308.973C218.901 309.03 218.408 309.159 218.076 309.5C217.744 309.84 217.648 310.446 217.982 310.784C218.74 311.552 219.498 312.32 220.256 313.088C220.504 313.338 220.817 313.611 221.162 313.536C221.39 313.486 221.555 313.296 221.704 313.116ZM167.231 299.489C167.699 299.993 168.288 300.509 168.973 300.452C170.444 300.331 170.918 297.794 172.386 297.932C172.781 297.282 171.705 296.762 170.944 296.75C168.977 296.719 167.01 296.688 165.042 296.657C165.685 297.664 166.418 298.613 167.231 299.489ZM179.382 327.141C183.474 327.123 187.566 327.105 191.659 327.087C191.3 326.278 190.34 325.95 189.474 325.77C186.634 325.182 183.656 325.271 180.857 326.03C180.23 326.2 179.515 326.505 179.382 327.141ZM204.65 322.834C203.296 322.895 201.942 322.957 200.588 323.018C200.151 323.038 199.59 323.164 199.536 323.599C199.512 323.793 199.609 323.979 199.704 324.15C200.062 324.8 200.443 325.476 201.062 325.886C201.681 326.295 202.612 326.336 203.094 325.771C203.463 325.338 203.492 324.663 203.932 324.302C204.216 324.07 204.61 324.024 204.923 323.834C205.237 323.644 205.437 323.151 205.146 322.928C205.01 322.823 204.822 322.826 204.65 322.834ZM169.59 325.099C169.952 324.535 169.609 323.736 169.046 323.373C168.482 323.01 167.778 322.966 167.108 322.933C166.368 322.896 165.394 323.032 165.262 323.761C165.198 324.108 165.375 324.449 165.546 324.757C166.048 325.663 166.786 326.702 167.817 326.6C168.616 326.52 169.157 325.775 169.59 325.099ZM223.079 316.979C223.687 317.029 224.231 316.617 224.658 316.182C225.958 314.852 226.785 313.068 226.96 311.217C226.529 310.942 226.003 311.369 225.673 311.759C224.566 313.068 223.459 314.377 222.352 315.686C221.958 316.152 222.471 316.929 223.079 316.979ZM155.345 307.704C155.963 308.477 157.154 308.719 158.024 308.248C158.469 308.008 158.845 307.53 158.757 307.031C158.678 306.587 158.274 306.286 157.901 306.032C157.363 305.665 156.824 305.298 156.286 304.931C156.121 304.819 155.932 304.701 155.738 304.741C155.603 304.769 155.495 304.868 155.405 304.971C154.754 305.716 154.728 306.931 155.345 307.704ZM203.165 299.548C203.812 300.09 204.77 299.53 205.412 298.982C206.108 298.387 206.804 297.792 207.5 297.197C207.106 296.82 206.477 296.905 205.943 297.016C204.393 297.336 202.842 297.656 201.292 297.977C201.916 298.5 202.541 299.024 203.165 299.548ZM227.509 291.943C227.9 292.429 228.722 292.325 229.169 291.891C229.616 291.457 229.782 290.815 229.91 290.205C229.941 290.058 229.97 289.9 229.908 289.763C229.752 289.416 229.236 289.52 228.891 289.681C227.962 290.115 226.868 291.144 227.509 291.943Z" fill="white"/>
<path id="Shape_2" fill-rule="evenodd" clip-rule="evenodd" d="M106.02 239.937C109.848 221.004 122.936 205.155 139.188 194.715C130.971 205.979 105.756 224.45 113.861 245.028C126.815 277.923 177.213 283.096 175.459 283.454C145.652 289.531 103.17 254.034 106.02 239.937Z" fill="#E7EAEE"/>
<g id="Food">
<path id="Combined Shape" fill-rule="evenodd" clip-rule="evenodd" d="M201.365 75.64C199.292 75.8916 197.465 77.5522 197.017 79.5925C213.803 70.5674 234.077 68.2471 252.468 73.2466C252.484 82.5213 245.978 91.4419 237.142 94.2608L217.986 100.372C223.039 100.933 228.231 100.192 232.926 98.2399C234.594 100.868 237.342 102.788 240.384 103.45L234.495 104.741C235.363 107.386 237.136 109.726 239.448 111.277C237.486 110.605 235.303 110.598 233.337 111.257L234.655 116.045C225.973 114.841 216.695 116.023 209.382 120.856C202.069 125.689 197.158 134.573 198.476 143.239C200.018 133.817 206.475 125.34 215.149 121.35C223.822 117.36 234.461 117.973 242.619 122.932L237.085 127.031C239.21 127.877 241.729 127.661 243.679 126.466C247.938 128.35 246.759 136.144 242.133 136.684L248.252 137.109C249.313 147.515 242.885 158.246 233.21 162.221C223.534 166.196 211.418 163.083 204.857 154.937C196.713 159.096 197.284 171.701 203.088 178.768C207.14 183.701 212.72 186.905 218.309 190.115C220.727 191.504 223.146 192.893 225.444 194.424C237.651 202.555 246.751 215.234 250.546 229.402C243.917 233.84 238.021 239.37 233.166 245.7C240.349 245.365 247.383 242.436 252.679 237.573L253.81 248.513C247.995 250.303 242.77 253.958 239.095 258.807C244.277 259.335 249.621 258.124 254.07 255.415C252.476 268.003 249.6 280.428 245.501 292.436L232.136 292.327C235.307 283.564 238.519 274.136 236.183 265.115C233.847 256.093 223.369 248.647 215.122 252.986C224.607 245.341 231.789 234.876 235.511 223.276L211.627 254.107L193.298 254.262C192.721 245.626 192.167 236.775 194.622 228.476C197.077 220.176 203.207 212.407 211.652 210.514C212.569 210.309 213.544 210.142 214.532 209.973L214.533 209.972C218.66 209.265 223.013 208.52 224.225 204.789C210.534 203.993 196.81 212.757 191.775 225.513C188.186 234.603 188.819 244.734 189.506 254.482C176.849 252.657 163.89 252.95 151.328 255.347C149.148 247.914 146.886 240.314 142.312 234.062C137.738 227.811 130.312 223.069 122.604 223.841C135.018 225.686 141.167 239.479 145.847 251.123C150.528 262.767 159.025 276.067 171.522 274.915C175.081 274.587 176.214 280.433 173.486 282.742C170.758 285.052 166.706 284.612 163.214 283.848C145.229 279.912 128.438 270.677 115.482 257.597C112.96 255.05 110.521 252.263 109.355 248.873C107.917 244.69 108.587 240.072 109.823 235.825C116.141 214.131 135.582 199.268 154.059 186.262C163.999 179.264 163.642 161.925 153.423 155.342C145.858 162.216 135.771 167.023 125.611 165.901C115.451 164.78 105.836 156.461 105.508 146.245C108.699 145.964 111.827 144.984 114.608 143.395C111.878 142.425 108.801 142.466 106.099 143.509C105.364 140.756 105.9 137.69 107.527 135.35L113.32 134.731C112.155 133.414 110.531 132.512 108.798 132.22C112.978 125.254 122.681 123.347 130.457 125.701C138.233 128.055 144.53 133.663 150.555 139.114C144.273 125.34 127.238 120.9 112.364 118.077L118.854 114.232C115.104 113.21 110.965 113.691 107.549 115.545C109.779 118.309 112.79 120.435 116.14 121.613C110.786 129.235 101.335 133.784 92.0372 133.214C82.8962 132.655 73.5867 135.453 66.2698 140.961C78.1602 136.126 91.1499 134.018 103.959 134.844L101.83 144.069C94.4358 145.452 87.3796 148.609 81.4212 153.201L101.56 146.4C103.578 156.716 111.739 165.584 121.853 168.451C131.967 171.317 143.566 168.051 150.698 160.327C158.267 161.829 160.083 172.756 155.945 179.269C152.669 184.427 147.31 187.639 141.998 190.824L141.998 190.824C140.601 191.661 139.208 192.497 137.857 193.365C121.605 203.805 109.848 221.004 106.02 239.937C102.192 258.87 106.344 279.286 117.263 295.219C99.2287 302.044 87.2385 322.138 89.7957 341.251C89.8543 341.688 89.9193 342.129 89.9846 342.571C90.3705 345.185 90.7643 347.854 89.877 350.309C88.8396 353.181 85.1139 355.308 82.6652 353.484C75.6799 348.283 67.4884 344.713 58.9234 343.137C53.8813 342.209 46.4816 344.294 47.5557 349.307C47.9139 350.979 49.23 352.254 50.5075 353.389C63.7632 365.172 79.9086 373.679 97.1215 377.952C101.017 378.918 105.344 379.622 108.874 377.714C113.901 374.998 114.726 368.906 115.555 362.787C116.37 356.772 117.188 350.73 122.004 347.841C126.354 345.232 131.713 346.695 136.736 348.066C137.407 348.25 138.072 348.431 138.728 348.601C150.672 351.697 163.059 350.516 175.451 349.334C180.342 348.867 185.235 348.4 190.101 348.197C203.603 347.631 217.19 349.129 230.244 352.62C234.791 353.836 239.312 351.568 243.617 349.407C244.256 349.086 244.891 348.767 245.521 348.463C250.387 346.109 257.056 344.869 260.528 349.012C261.901 350.651 262.408 352.75 262.917 354.861C263.17 355.905 263.422 356.952 263.781 357.947C266.119 364.434 273.13 368.407 280.015 368.793C286.899 369.179 293.622 366.567 299.638 363.198C311.036 356.815 320.785 347.516 327.699 336.432C328.504 335.142 329.299 333.708 329.138 332.196C328.712 328.201 322.967 327.887 319.134 329.09C308.763 332.346 299.23 338.231 291.672 346.043C288.119 342.804 286.39 337.683 287.251 332.952C308.379 318.343 330.875 303.234 356.497 301.418C360.515 301.134 364.594 301.178 368.667 301.222C377.514 301.317 386.336 301.413 394.447 298.14C409.391 292.111 418.023 271.718 408.661 258.602C401.458 248.511 387.375 246.13 375.027 247.236C354.157 249.105 334.068 258.715 319.515 273.791C315.472 277.98 311.782 282.617 308.1 287.244C300.131 297.259 292.194 307.233 280.771 312.547C273.016 301.82 260.862 294.377 247.782 292.344C257.483 274.443 259.995 252.773 254.645 233.128C249.295 213.483 236.142 196.078 218.704 185.568C217.758 184.999 216.794 184.443 215.828 183.886L215.824 183.884L215.82 183.881L215.816 183.879L215.816 183.879L215.815 183.878L215.814 183.878C211.423 181.346 206.988 178.79 203.995 174.759C200.342 169.837 199.979 161.753 205.104 158.39C211.918 167.741 226.219 169.76 236.332 164.138C246.445 158.516 252.204 146.718 252.408 135.149L278.568 134.483C269.774 131.542 260.168 131.071 251.129 133.14L247.995 124.606L268.752 121.884C261.094 119.956 252.887 120.263 245.394 122.759C243.692 119.425 241.096 116.552 237.951 114.521C240.904 114.856 243.971 114.065 246.394 112.344L239.584 106.924C242.405 107.443 245.467 105.593 246.321 102.855L235.421 98.4459L278.449 77.8554C276.616 77.8231 274.781 77.8906 272.954 78.0575L278.517 74.3797C270.024 75.4062 261.648 73.0158 253.283 70.6283C244.623 68.157 235.975 65.6889 227.22 67.0171C223.781 67.5389 220.32 68.6331 216.879 69.721C209.777 71.9661 202.758 74.1849 196.188 71.292C182.819 65.4055 167.141 64.9744 153.469 70.1171C152.26 70.5719 151.031 71.0688 149.791 71.5705C142.965 74.3318 135.773 77.2414 129.397 74.0982C121.723 70.3156 112.417 72.528 104.723 76.2688C102.022 77.582 99.4006 79.0758 96.7814 80.5684C91.9393 83.3277 87.1047 86.0827 81.7887 87.6845C93.7853 95.0371 107.371 99.7821 121.336 101.497C123.052 102.823 122.453 105.769 120.742 107.1C119.03 108.431 116.716 108.6 114.552 108.715C115.109 112.572 120.078 115.015 123.472 113.1C122.046 113.365 121.94 111.048 122.532 109.724L126.23 101.46C129.101 102.515 132.675 100.823 133.68 97.9336C126.569 98.7895 119.19 99.6222 112.378 97.4098C105.565 95.1974 99.4787 89.0256 99.798 81.87C114.969 73.0803 135.335 74.2705 149.378 84.7674C148.294 81.6027 145.629 79.0246 142.43 78.0461C146.123 74.4098 151.026 72.0235 156.167 71.3601C153.113 73.7762 151.713 78.0958 152.77 81.8437L166.481 69.2328C164.232 73.2651 162.972 77.8446 162.842 82.4599C167.928 79.1368 171.979 74.255 174.308 68.6444L180.407 69.5008C176.673 72.6558 174.593 77.6691 174.996 82.541C179.643 79.6516 183.247 75.1198 185.014 69.9407C190.742 70.866 196.304 72.8047 201.365 75.64ZM369.851 298.885C366.784 298.783 363.715 298.682 360.665 298.768C337.957 299.413 316.847 310.473 298.111 323.319L297.733 323.579L297.323 323.861L297.322 323.862C293.767 326.307 290.177 328.776 286.118 330.218L281.35 316.322C281.095 315.576 280.937 314.552 281.63 314.177C288.921 310.234 295.578 305.124 301.27 299.099C305.063 295.085 308.427 290.674 311.787 286.269L311.787 286.268C316.546 280.029 321.296 273.8 327.245 268.723C336.744 260.616 348.703 255.976 360.702 252.516C369.582 249.955 378.888 247.945 388.022 249.352C397.156 250.759 406.15 256.21 409.499 264.824C412.16 271.665 410.858 279.735 406.759 285.825C402.66 291.915 396.005 296.059 388.874 297.797C382.672 299.309 376.266 299.097 369.851 298.885ZM108.581 328.322C109.061 329.464 109.364 330.988 108.405 331.773C107.171 332.784 105.419 331.481 104.382 330.269L95.5396 319.937C93.4228 325.439 92.4517 331.38 92.706 337.27C92.757 338.452 92.8534 339.652 92.9501 340.856C93.3197 345.457 93.6941 350.119 91.5632 354.109C90.6286 355.859 89.038 357.465 87.0582 357.594C85.936 357.667 84.8433 357.256 83.8076 356.818C80.9687 355.618 78.1715 354.142 75.3751 352.667C68.177 348.871 60.9845 345.077 53.1024 345.982C52.026 346.106 50.6856 346.637 50.7276 347.719C50.7464 348.204 51.0627 348.621 51.3703 348.996C62.7343 362.875 80.5054 369.605 97.7082 374.686C100.522 375.518 103.487 376.327 106.352 375.696C109.217 375.065 111.876 372.481 111.53 369.568C110.615 361.861 113.03 353.814 118.039 347.885C120.038 345.517 122.566 343.411 125.6 342.78C129.326 342.006 132.969 343.542 136.555 345.054C137.477 345.442 138.395 345.829 139.309 346.175C146.321 348.826 154.202 349.115 161.389 346.985C158.579 346.949 157.23 343.58 156.647 340.831C152.874 323.021 150.868 304.838 150.669 286.634C150.647 284.655 149.258 282.904 147.584 281.849C146.166 280.956 144.55 280.459 142.942 279.965L142.942 279.965L142.941 279.965L142.94 279.964L142.94 279.964L142.939 279.964C142.649 279.875 142.358 279.785 142.07 279.694C136.217 277.84 130.701 274.924 125.872 271.133C125.263 270.655 124.664 270.162 124.064 269.67C122.216 268.15 120.366 266.63 118.244 265.541C115.434 264.099 111.956 263.512 109.139 264.941C108.511 266.438 109.647 268.178 111.101 268.901C112.202 269.448 113.435 269.597 114.666 269.745C115.06 269.792 115.454 269.84 115.844 269.9C117.695 270.188 119.496 270.791 121.148 271.675C122.882 272.604 124.525 275.057 122.979 276.275C122.345 276.774 121.457 276.739 120.652 276.68L111.573 276.013C113.786 282.034 116.608 287.832 119.981 293.289C120.284 293.779 120.688 294.323 121.264 294.329C130.159 294.409 140.092 295.654 145.729 302.535C146.797 303.839 147.673 305.724 146.757 307.14C141.59 300.901 133.508 297.185 125.409 297.325C117.309 297.465 109.36 301.457 104.412 307.871C108.779 310.794 112.251 315.037 114.253 319.897C114.857 321.364 114.746 323.765 113.159 323.731L103.629 312.062C103.203 311.541 102.691 310.975 102.018 310.954C101.478 310.938 101.003 311.283 100.575 311.612C99.6476 312.324 98.6855 313.08 98.2016 314.144C97.7177 315.208 97.8978 316.673 98.9058 317.265C103.202 319.788 106.65 323.729 108.581 328.322ZM217.236 346.584C223.357 341.479 225.353 333.072 226.997 325.273L233.019 296.695C233.084 296.389 233.158 296.066 233.377 295.844C233.667 295.551 234.122 295.519 234.534 295.507C245.512 295.175 257.2 296.221 266.042 302.736C262.434 304.525 259.28 307.221 256.952 310.507C256.299 311.429 255.753 312.816 256.594 313.57C256.91 313.853 257.349 313.953 257.772 313.983C259.879 314.133 261.805 312.817 263.345 311.37C263.677 311.058 264.003 310.736 264.33 310.413C265.517 309.238 266.711 308.058 268.218 307.368C270.139 306.488 272.808 306.735 273.868 308.563C270.442 310.308 267.618 313.212 265.969 316.686C265.54 317.591 265.185 318.636 265.533 319.575C265.881 320.514 267.249 321.065 267.921 320.323L274.541 313.014C274.862 312.661 275.306 312.273 275.754 312.436C275.996 312.524 276.154 312.753 276.292 312.97C279.801 318.476 281.196 324.886 282.596 331.324C283.416 335.094 284.239 338.874 285.489 342.487C286.49 345.381 288.423 348.633 291.487 348.635C293.179 348.636 294.677 347.595 296.017 346.56C297.447 345.456 298.871 344.298 300.301 343.134L300.302 343.133L300.302 343.133L300.303 343.132L300.304 343.132L300.304 343.131L300.305 343.13L300.306 343.13C307.039 337.651 313.925 332.047 322.404 331.376C323.741 331.27 325.456 331.565 325.769 332.869C325.952 333.626 325.544 334.388 325.138 335.052C318.835 345.369 309.381 353.503 298.937 359.592C293.59 362.709 287.727 365.386 281.537 365.434C275.348 365.482 268.794 362.318 266.455 356.587C265.978 355.418 265.686 354.184 265.395 352.951C265.058 351.525 264.721 350.1 264.098 348.78C262.493 345.376 258.936 342.98 255.178 342.772C251.601 342.573 248.31 344.167 245.027 345.757L245.027 345.758L245.026 345.758L245.026 345.758L245.026 345.758L245.025 345.758L245.025 345.759L245.025 345.759L245.024 345.759L245.024 345.759L245.023 345.759L245.023 345.759L245.023 345.76L245.022 345.76L245.022 345.76L245.022 345.76L245.021 345.76L245.021 345.761L245.021 345.761L245.02 345.761L245.02 345.761L245.019 345.761L245.019 345.761L245.019 345.762L245.018 345.762L245.018 345.762L245.018 345.762L245.017 345.762L245.017 345.763L245.017 345.763L245.016 345.763L245.016 345.763L245.015 345.763C243.866 346.32 242.717 346.876 241.558 347.354C233.831 350.541 224.746 350.253 217.236 346.584ZM176.381 285.06C174.078 287.026 170.979 287.81 167.958 288.032C162.516 288.431 156.963 287.158 152.239 284.426L154.188 291.804C154.272 292.121 154.373 292.464 154.637 292.66C154.866 292.83 155.169 292.851 155.455 292.866L183.46 294.338C187.543 294.553 191.631 294.767 195.718 294.649C207.181 294.318 218.558 291.325 228.701 285.974C229.286 285.665 229.882 285.336 230.304 284.827C230.806 284.219 231.004 283.422 231.172 282.652C232.593 276.136 232.838 269.366 231.894 262.764C231.662 261.142 231.339 259.479 230.427 258.118C229.516 256.757 227.876 255.763 226.267 256.069C209.786 259.207 192.961 258.238 176.138 257.269H176.138L176.137 257.269C169.797 256.903 163.457 256.538 157.136 256.393C156.007 256.367 154.82 256.361 153.828 256.901C152.837 257.441 152.154 258.723 152.664 259.731C155.546 265.434 161.503 269.073 167.678 270.715C168.122 270.833 168.576 270.948 169.035 271.065C173.03 272.081 177.429 273.2 178.88 276.919C179.981 279.74 178.685 283.094 176.381 285.06ZM221.314 333.396C220.184 337.882 217.81 342.535 213.501 344.218C211.993 344.806 210.361 344.982 208.75 345.131C193.81 346.522 178.711 346.187 163.848 344.135C162.963 344.013 162.03 343.864 161.341 343.297C160.501 342.605 160.216 341.461 159.996 340.395C159.321 337.129 158.798 333.832 158.429 330.517C158.364 329.93 158.527 329.093 159.116 329.139C168.626 329.879 178.164 330.267 187.704 330.304C194.284 330.329 200.917 330.18 207.344 328.767C213.77 327.353 220.037 324.591 224.735 319.984C223.399 322.788 222.824 325.852 222.249 328.921L222.249 328.921C221.967 330.422 221.685 331.923 221.314 333.396ZM189.183 314.769C188.574 315.362 187.918 316.067 187.961 316.917C188.004 317.767 189.279 318.401 189.718 317.673C192.119 313.696 196.293 310.837 200.869 310.036C205.444 309.236 210.341 310.507 213.95 313.431C214.325 313.735 214.688 314.057 215.05 314.378C215.906 315.136 216.761 315.893 217.771 316.417C218.289 316.686 219.175 316.693 219.197 316.11C219.204 315.919 219.094 315.745 218.986 315.586C216.395 311.767 212.521 308.835 208.141 307.38C204.302 306.104 199.853 306.024 196.42 308.163C195.173 308.94 194.109 309.973 193.057 310.998L189.183 314.769ZM156.933 312.596C160.243 308.831 165.595 307.162 170.565 307.82C175.536 308.477 180.082 311.277 183.385 315.05C183.967 315.714 184.537 316.67 184.065 317.417C183.67 318.042 182.726 318.088 182.077 317.732C181.511 317.422 181.107 316.899 180.71 316.385L180.709 316.384C180.651 316.309 180.593 316.234 180.535 316.16C177.611 312.441 172.835 310.257 168.109 310.48C163.384 310.703 158.834 313.327 156.274 317.305C155.607 316.724 155.418 315.729 155.619 314.868C155.82 314.007 156.35 313.26 156.933 312.596ZM205.627 302.731C205.55 303.571 206.66 304.094 207.458 303.819C208.176 303.571 208.676 302.951 209.159 302.353C209.212 302.287 209.265 302.221 209.319 302.156C213.762 296.721 222.224 295.084 228.374 298.468C229.18 297.787 229.226 296.48 228.687 295.573C228.147 294.665 227.161 294.108 226.155 293.787C223.977 293.091 221.612 293.328 219.37 293.782C214.065 294.855 208.705 297.37 205.916 302.009C205.782 302.233 205.65 302.47 205.627 302.731ZM178.413 321.873C180.454 321.091 182.588 320.514 184.769 320.363C190.163 319.988 195.677 322.411 199.049 326.638C197.612 327.665 195.72 326.415 194.244 325.44L194.23 325.431C189.518 322.319 183.081 322.041 178.118 324.734C177.731 324.944 177.34 325.173 176.947 325.403C175.09 326.49 173.161 327.62 171.163 327.055C172.814 324.525 175.592 322.952 178.413 321.873ZM196.091 317.395L196.091 317.395L196.091 317.395C196.816 316.84 197.542 316.284 198.343 315.851C200.602 314.629 203.417 314.487 205.787 315.477C206.479 315.766 207.128 316.143 207.777 316.519C208.336 316.844 208.895 317.168 209.482 317.437C210.75 318.017 212.261 318.319 213.524 317.728C213.664 317.662 213.809 317.576 213.869 317.433C213.965 317.2 213.794 316.95 213.628 316.761C210.801 313.533 206.371 311.785 202.102 312.211C197.832 312.637 193.835 315.227 191.702 318.949C192.147 319.535 193.074 319.34 193.727 318.999C194.573 318.559 195.332 317.977 196.091 317.395ZM162.124 317.986C161.642 318.411 161.162 318.837 160.605 319.153C159.719 319.657 158.526 319.826 157.725 319.196C157.477 317.864 158.821 316.829 159.992 316.145C162.879 314.461 165.982 312.721 169.32 312.893C171.99 313.031 174.428 314.383 176.734 315.736C177.301 316.069 177.883 316.418 178.271 316.949C178.658 317.479 178.803 318.244 178.441 318.793C178.075 319.347 177.304 319.51 176.657 319.36C176.034 319.215 175.495 318.84 174.968 318.474L174.907 318.432C173.041 317.137 171.006 315.942 168.75 315.68C166.725 315.445 164.614 316.015 162.994 317.252C162.694 317.482 162.409 317.734 162.124 317.985L162.124 317.986ZM175.638 306.214C176.241 306.994 177.421 306.158 178.086 305.431C180.135 303.192 183.089 301.805 186.121 301.66C189.153 301.514 192.226 302.611 194.481 304.644C194.526 304.684 194.571 304.726 194.617 304.767L194.619 304.769C195.147 305.25 195.711 305.764 196.414 305.783C197.18 305.804 197.869 304.735 197.262 304.269C194.012 301.772 190.231 299.731 186.141 299.462C182.051 299.192 177.644 301.027 175.751 304.662C175.497 305.149 175.303 305.779 175.638 306.214ZM212.963 304.609C212.612 304.97 212.257 305.336 211.797 305.53C211.257 305.758 210.516 305.649 210.255 305.124C209.98 304.57 210.365 303.923 210.766 303.451C214.701 298.821 222.109 297.62 227.305 300.771C228.101 301.254 228.936 302.19 228.467 302.995C227.906 303.96 226.453 303.343 225.486 302.784C221.623 300.549 216.292 301.257 213.146 304.422C213.12 304.448 213.094 304.474 213.068 304.501L213.008 304.562L212.966 304.606L212.965 304.606L212.963 304.609ZM214.67 305.828C214.447 306.014 214.224 306.224 214.13 306.499C213.867 307.268 214.802 307.989 215.613 307.924C216.199 307.877 216.722 307.592 217.245 307.306L217.246 307.306C217.445 307.197 217.644 307.088 217.847 306.992C219.64 306.147 221.794 306.348 223.614 307.134C223.786 307.208 223.958 307.288 224.129 307.368C224.673 307.621 225.217 307.874 225.807 307.963C226.582 308.08 227.487 307.823 227.84 307.122C224.756 303.3 218.439 302.679 214.67 305.828ZM167.296 304.122C167 304.535 166.372 304.577 165.912 304.361C165.484 304.16 165.164 303.795 164.851 303.439L164.779 303.357C162.618 300.906 159.817 299.023 156.731 297.947C155.929 297.668 154.911 297.112 155.136 296.294C157.352 295.537 159.857 296.131 161.847 297.365C163.836 298.6 165.393 300.411 166.84 302.251C167.268 302.795 167.699 303.56 167.296 304.122ZM193.184 306.415C189.542 304.092 184.57 304.051 180.891 306.314C180.251 306.707 179.594 307.259 179.545 308.009C179.495 308.758 180.512 309.453 181.017 308.897C183.049 306.656 186.763 306.191 189.286 307.862C190.524 308.682 192.303 308.57 193.429 307.601C193.96 307.546 193.634 306.702 193.184 306.415ZM205.93 325.254C209.686 321.677 214.502 318.633 219.677 318.982C220.209 319.018 220.922 319.466 220.601 319.891L207.768 325.445C207.136 325.718 206.204 325.886 205.93 325.254ZM170.804 321.512L170.804 321.512C171.314 321.823 171.831 322.138 172.417 322.139C173.149 322.139 173.874 321.258 173.41 320.693C171.949 318.911 169.652 317.846 167.349 317.881C165.045 317.917 162.782 319.052 161.376 320.877C161.549 321.54 162.361 321.846 163.039 321.747C163.528 321.675 163.975 321.457 164.423 321.238C164.596 321.154 164.769 321.069 164.945 320.993C166.685 320.239 168.776 320.351 170.426 321.287C170.552 321.358 170.678 321.435 170.804 321.512ZM197.118 321.672C196.606 321.7 196.029 321.31 196.087 320.8C196.108 320.612 196.211 320.444 196.319 320.288C197.505 318.582 199.649 317.711 201.727 317.691C203.805 317.672 205.825 318.408 207.659 319.384C208.171 319.657 208.747 320.09 208.665 320.664C207.814 321.568 206.406 321.083 205.179 320.66L205.178 320.66C205.042 320.613 204.908 320.567 204.778 320.524C202.735 319.846 200.414 320.058 198.529 321.097C198.502 321.111 198.475 321.126 198.449 321.141C198.411 321.163 198.372 321.184 198.334 321.206C197.949 321.425 197.556 321.648 197.118 321.672ZM192.224 298.441C194.364 299.207 196.356 300.381 198.063 301.881C198.119 301.93 198.174 301.979 198.23 302.029C198.293 302.085 198.355 302.142 198.418 302.198C198.999 302.722 199.584 303.249 200.293 303.57C201.147 303.955 202.255 303.965 202.923 303.309C201.445 302.175 200.231 300.699 199.402 299.03C198.956 298.131 197.767 297.967 196.765 297.918L192.37 297.703C192.215 297.911 192.16 298.19 192.224 298.441ZM174.314 302.212C173.938 302.691 173.561 303.17 173.117 303.585C172.361 304.292 171.317 304.81 170.307 304.586C171.334 302.095 172.993 299.868 175.087 298.172C176.582 296.961 178.744 297.227 180.64 297.556C180.741 298.241 179.861 298.583 179.192 298.762C177.641 299.176 176.214 300.041 175.13 301.225C174.842 301.539 174.579 301.875 174.315 302.211L174.315 302.211L174.315 302.211L174.315 302.211L174.315 302.211L174.315 302.211L174.314 302.211L174.314 302.211L174.314 302.212L174.314 302.212L174.314 302.212L174.314 302.212L174.314 302.212L174.314 302.212L174.314 302.212ZM156.269 302.727L160.344 305.382C160.919 305.757 161.653 306.141 162.25 305.801C162.803 305.486 162.888 304.675 162.599 304.107C162.311 303.539 161.761 303.159 161.232 302.804L157.915 300.57C156.988 299.946 155.48 299.449 154.976 300.445C154.542 301.304 155.462 302.202 156.269 302.727ZM186.777 314.123C186.116 314.44 185.388 313.882 184.868 313.367L183.172 311.683C182.973 311.485 182.757 311.245 182.792 310.966C182.814 310.79 182.933 310.644 183.056 310.516C184.648 308.849 187.675 308.895 189.217 310.609L187.45 313.401C187.272 313.683 187.078 313.979 186.777 314.123ZM161.099 326.675C162.204 327.062 163.507 327.177 164.482 326.528C163.015 324.841 161.296 323.374 159.4 322.191C158.862 321.855 158.255 321.531 157.627 321.62C156.999 321.71 156.444 322.423 156.748 322.98C157.681 324.688 159.262 326.031 161.099 326.675ZM223.27 311.224L221.704 313.116C221.555 313.296 221.39 313.486 221.162 313.536C220.817 313.611 220.504 313.338 220.256 313.088L217.982 310.784C217.648 310.446 217.744 309.84 218.076 309.5C218.408 309.159 218.901 309.03 219.373 308.973C220.609 308.824 221.89 309.079 222.975 309.689C223.287 309.865 223.614 310.122 223.629 310.48C223.64 310.762 223.45 311.007 223.27 311.224ZM167.231 299.489C167.699 299.993 168.288 300.509 168.973 300.452C169.684 300.394 170.162 299.771 170.631 299.159C171.134 298.504 171.627 297.861 172.386 297.932C172.781 297.282 171.705 296.762 170.944 296.75L165.042 296.657C165.685 297.664 166.418 298.613 167.231 299.489ZM191.659 327.087L179.382 327.141C179.515 326.505 180.23 326.2 180.857 326.03C183.656 325.271 186.634 325.182 189.474 325.77C190.34 325.95 191.3 326.278 191.659 327.087ZM204.65 322.834L200.588 323.018C200.151 323.038 199.59 323.164 199.536 323.599C199.512 323.793 199.609 323.979 199.704 324.15C200.062 324.8 200.443 325.476 201.062 325.886C201.681 326.295 202.612 326.336 203.094 325.771C203.26 325.577 203.357 325.333 203.454 325.092C203.572 324.795 203.69 324.501 203.932 324.302C204.093 324.17 204.289 324.098 204.486 324.026C204.637 323.971 204.788 323.916 204.923 323.834C205.237 323.644 205.437 323.151 205.146 322.928C205.01 322.823 204.822 322.826 204.65 322.834ZM169.046 323.373C169.609 323.736 169.952 324.535 169.59 325.099C169.157 325.775 168.616 326.52 167.817 326.6C166.786 326.702 166.048 325.663 165.546 324.757C165.375 324.449 165.198 324.108 165.262 323.761C165.394 323.032 166.368 322.896 167.108 322.933C167.778 322.966 168.482 323.01 169.046 323.373ZM223.079 316.979C223.687 317.029 224.231 316.617 224.658 316.181C225.958 314.852 226.785 313.068 226.96 311.217C226.529 310.942 226.003 311.369 225.673 311.759L222.352 315.686C221.958 316.152 222.471 316.929 223.079 316.979ZM158.024 308.248C157.154 308.719 155.963 308.477 155.345 307.704C154.728 306.931 154.754 305.716 155.405 304.971C155.495 304.868 155.603 304.769 155.738 304.741C155.932 304.701 156.121 304.819 156.286 304.931L157.901 306.032C158.274 306.286 158.678 306.587 158.757 307.031C158.845 307.53 158.469 308.008 158.024 308.248ZM203.165 299.548C203.812 300.09 204.77 299.53 205.412 298.982L207.5 297.197C207.106 296.82 206.477 296.905 205.943 297.016L201.292 297.977L203.165 299.548ZM109.143 258.643C108.668 258.22 108.546 257.53 108.532 256.895C108.516 256.178 108.6 255.459 108.781 254.765L111.864 258.778C112.047 259.017 112.198 259.429 111.927 259.561C111.541 259.302 111.067 259.229 110.597 259.156C110.064 259.073 109.535 258.992 109.143 258.643ZM227.509 291.943C227.9 292.429 228.722 292.325 229.169 291.891C229.616 291.457 229.782 290.815 229.91 290.205C229.941 290.058 229.97 289.9 229.908 289.763C229.752 289.416 229.236 289.52 228.891 289.681C227.962 290.115 226.868 291.144 227.509 291.943ZM192.626 114.514C193.003 113.572 193.881 112.936 194.746 112.405C197.356 110.802 200.254 109.67 203.26 109.079C203.979 108.938 204.836 108.869 205.335 109.406C205.897 110.009 205.616 111.053 204.993 111.593C204.437 112.074 203.706 112.271 202.991 112.464L202.99 112.464L202.853 112.501C202.812 112.513 202.771 112.524 202.73 112.535C200.326 113.201 198.065 114.376 196.139 115.961C195.398 116.57 194.521 117.287 193.597 117.031C192.619 116.759 192.249 115.457 192.626 114.514ZM138.563 114.735C137.865 114.357 137.394 113.414 137.828 112.75C138.08 112.364 138.551 112.188 138.999 112.074C142.622 111.154 146.374 112.778 149.652 114.576C150.389 114.981 151.149 115.422 151.614 116.124C152.079 116.825 152.147 117.864 151.54 118.447C150.525 119.423 148.914 118.42 147.767 117.601C145.759 116.169 143.346 115.31 140.885 115.152C140.775 115.145 140.665 115.139 140.554 115.134L140.553 115.134C139.864 115.097 139.164 115.06 138.563 114.735ZM176.55 166.689L174.166 159.89C172.045 161.421 170.459 163.68 169.739 166.195C169.088 165.666 169.064 164.77 169.04 163.891C169.033 163.628 169.026 163.366 169.002 163.117C168.862 161.635 167.931 160.251 166.611 159.562C165.292 158.873 163.624 158.9 162.328 159.631C162.672 160.384 163.482 160.623 164.316 160.869C164.87 161.032 165.434 161.198 165.88 161.52C166.82 162.201 167.09 163.482 167.104 164.643C167.108 164.933 167.1 165.226 167.093 165.52V165.52V165.52C167.071 166.397 167.048 167.275 167.322 168.1C167.41 168.367 167.536 168.633 167.752 168.812C168.363 169.321 169.289 168.898 169.908 168.399C171.307 167.271 172.407 165.776 173.067 164.105C173.649 164.687 173.864 165.504 174.078 166.314C174.141 166.552 174.203 166.79 174.275 167.021C174.59 168.038 175.345 169.124 176.409 169.075C177.117 169.042 177.689 168.509 178.191 168.007L181.074 165.126C181.422 164.779 181.799 164.338 181.687 163.86C181.58 163.4 181.035 163.154 180.568 163.22C180.101 163.286 179.702 163.581 179.337 163.879C178.313 164.714 177.377 165.658 176.55 166.689ZM169.963 139.42C170.117 138.174 170.201 136.722 169.286 135.863C167.578 134.26 166.082 132.431 164.849 130.439C164.312 129.57 163.807 128.555 164.063 127.566C164.45 126.072 166.266 125.532 167.798 125.345C170.248 125.047 172.729 124.996 175.19 125.194C176.247 125.28 177.368 125.438 178.177 126.124C178.987 126.81 179.278 128.201 178.497 128.919C174.669 132.438 172.427 137.623 172.485 142.823C173.905 143.744 175.348 144.677 176.965 145.176C178.582 145.674 180.426 145.69 181.885 144.832C182.499 144.471 183.014 143.977 183.531 143.481C183.887 143.139 184.244 142.797 184.635 142.497C185.591 141.764 186.959 141.31 187.984 141.944L184.086 145.533C182.533 146.963 180.604 148.501 178.548 148.019C177.868 147.86 177.27 147.492 176.67 147.122C176.313 146.902 175.955 146.682 175.578 146.505C173.565 145.557 171.203 145.911 169.028 146.378C168.896 146.407 168.763 146.435 168.63 146.464C166.577 146.909 164.453 147.369 162.438 146.817C160.292 146.228 158.41 143.998 159.081 141.877C160.432 143.854 162.784 145.107 165.178 145.125C166.097 145.132 167.045 144.956 167.807 144.441C169.366 143.387 169.732 141.287 169.963 139.42Z" fill="#00160A"/>
</g>
</g>
</g>
</svg>
